<?xml version="1.0" standalone="no"?><!DOCTYPE svg PUBLIC "-//W3C//DTD SVG 1.1//EN" "http://www.w3.org/Graphics/SVG/1.1/DTD/svg11.dtd"><svg t="1723030319714" class="icon" viewBox="0 0 1024 1024" version="1.1" xmlns="http://www.w3.org/2000/svg" p-id="5741" xmlns:xlink="http://www.w3.org/1999/xlink" width="200" height="200"><path d="M544 451.2l-96-96c-38.4-38.4-38.4-99.2 0-134.4l64-64c38.4-38.4 99.2-38.4 134.4 0l19.2 19.2 6.4-6.4c38.4-38.4 99.2-38.4 134.4 0l48 48c38.4 38.4 38.4 99.2 0 134.4l-6.4 6.4 35.2 35.2c38.4 38.4 38.4 99.2 0 134.4l-64 64c-38.4 38.4-99.2 38.4-134.4 0l-99.2-99.2-96 96 105.6 105.6c38.4 38.4 38.4 99.2 0 134.4l-64 64c-38.4 38.4-99.2 38.4-134.4 0l-16-16-12.8 12.8c-38.4 38.4-99.2 38.4-134.4 0l-60.8-60.8c-28.8-28.8-28.8-76.8 0-105.6l28.8-28.8-38.4-38.4c-38.4-38.4-38.4-99.2 0-134.4l64-64c38.4-38.4 99.2-38.4 134.4 0l92.8 92.8 89.6-99.2zM201.6 563.2c-12.8 12.8-12.8 32 0 44.8l236.8 236.8c12.8 12.8 32 12.8 44.8 0l64-64c12.8-12.8 12.8-32 0-44.8l-236.8-236.8c-12.8-12.8-32-12.8-44.8 0l-64 64z m291.2-300.8c-12.8 12.8-12.8 32 0 44.8l236.8 236.8c12.8 12.8 32 12.8 44.8 0l64-64c12.8-12.8 12.8-32 0-44.8l-236.8-236.8c-12.8-12.8-32-12.8-44.8 0l-64 64zM211.2 764.8c-3.2 3.2-3.2 12.8 0 16l60.8 60.8c12.8 12.8 32 12.8 44.8 0l9.6-9.6-92.8-92.8-22.4 25.6zM803.2 313.6l6.4-6.4c12.8-12.8 12.8-32 0-44.8l-48-48c-12.8-12.8-32-12.8-44.8 0l-6.4 6.4 92.8 92.8z" fill="#ffffff" p-id="5742"></path></svg>