<?xml version="1.0" standalone="no"?><!DOCTYPE svg PUBLIC "-//W3C//DTD SVG 1.1//EN" "http://www.w3.org/Graphics/SVG/1.1/DTD/svg11.dtd"><svg t="1723030404700" class="icon" viewBox="0 0 1024 1024" version="1.1" xmlns="http://www.w3.org/2000/svg" p-id="12163" xmlns:xlink="http://www.w3.org/1999/xlink" width="200" height="200"><path d="M812.518261 598.226632C800.898715 561.448068 773.589782 496.980587 711.372212 450.802391c68.85731 105.785868 45.288231 219.521425 18.999258 265.879614 22.479122-10.579587 55.597828-45.518222 55.597828-45.518222s5.789774 42.738331-1.819929 93.136362a24.269052 24.269052 0 0 0-5.999765 12.139525C760.990274 872.43592 684.093278 974.961916 529.499316 974.961916 380.565134 974.961916 269.009492 848.446858 269.009492 674.083669V136.164681c0-1.419945 3.269872-2.799891 2.999883-4.159837 27.998906-8.169681 50.308035-33.998672 50.308034-64.657475C322.347408 30.19882 293.008554 0 255.820007 0s-66.947385 30.19882-66.947385 67.347369c0 26.998945 13.189485 50.278036 36.168587 60.997618-0.829968 2.459904-4.199836 5.049803-4.199836 7.789695v537.948987c0 202.75208 131.744854 349.916331 309.077927 349.916331 149.49416 0 264.539666-90.496465 293.238545-231.110972 2.329909-0.179993 4.729815-1.109957 5.209797-3.189876 16.619351-71.867193-0.729971-136.814656-15.849381-191.47252zM256.689973 36.718566a30.628804 30.628804 0 1 1-30.628804 30.628803 30.658802 30.658802 0 0 1 30.628804-30.628803z" p-id="12164" fill="#ffffff"></path></svg>