<?xml version="1.0" standalone="no"?><!DOCTYPE svg PUBLIC "-//W3C//DTD SVG 1.1//EN" "http://www.w3.org/Graphics/SVG/1.1/DTD/svg11.dtd"><svg t="1723030431750" class="icon" viewBox="0 0 1024 1024" version="1.1" xmlns="http://www.w3.org/2000/svg" p-id="14158" xmlns:xlink="http://www.w3.org/1999/xlink" width="200" height="200"><path d="M512 256c-140.8 0-256 115.2-256 256s115.2 256 256 256 256-115.2 256-256-115.2-256-256-256z m0 469.333333c-117.333333 0-213.333333-96-213.333333-213.333333s96-213.333333 213.333333-213.333333 213.333333 96 213.333333 213.333333-96 213.333333-213.333333 213.333333z" fill="#ffffff" p-id="14159"></path><path d="M507.733333 435.2h29.866667l51.2 151.466667 51.2-151.466667h29.866667L608 618.666667h-34.133333l-66.133334-183.466667zM337.066667 435.2h27.733333v113.066667c0 17.066667 4.266667 27.733333 10.666667 36.266666 8.533333 8.533333 19.2 12.8 36.266666 12.8 17.066667 0 27.733333-4.266667 36.266667-12.8 6.4-8.533333 10.666667-19.2 10.666667-36.266666v-113.066667h27.733333v113.066667c0 23.466667-6.4 42.666667-19.2 55.466666-12.8 12.8-32 19.2-55.466667 19.2s-42.666667-6.4-55.466666-19.2c-12.8-12.8-19.2-32-19.2-55.466666v-113.066667z" fill="#ffffff" p-id="14160"></path><path d="M448 106.666667v192h-42.666667V106.666667h42.666667z" fill="#ffffff" p-id="14161"></path><path d="M618.666667 128H405.333333V85.333333h213.333334v42.666667z" fill="#ffffff" p-id="14162"></path><path d="M618.666667 106.666667v192h-42.666667V106.666667h42.666667zM829.866667 228.266667l-89.6 89.6-29.866667-29.866667 89.6-89.6 29.866667 29.866667zM827.733333 797.866667l-89.6-89.6-29.866666 29.866666 89.6 89.6 29.866666-29.866666zM177.066667 778.666667l89.6-89.6 29.866666 29.866666-89.6 89.6-29.866666-29.866666zM177.066667 249.6l89.6 89.6 29.866666-29.866667-89.6-89.6-29.866666 29.866667zM533.333333 810.666667v128h-42.666666v-128h42.666666zM85.333333 490.666667h128v42.666666H85.333333v-42.666666zM810.666667 490.666667h128v42.666666h-128v-42.666666z" fill="#ffffff" p-id="14163"></path></svg>