<?xml version="1.0" standalone="no"?><!DOCTYPE svg PUBLIC "-//W3C//DTD SVG 1.1//EN" "http://www.w3.org/Graphics/SVG/1.1/DTD/svg11.dtd"><svg t="1722342367600" class="icon" viewBox="0 0 1024 1024" version="1.1" xmlns="http://www.w3.org/2000/svg" p-id="1681" xmlns:xlink="http://www.w3.org/1999/xlink" width="200" height="200"><path d="M518.0288 725.1968L322.2144 529.3824" fill="#2c2c2c" p-id="1682"></path><path d="M50.0352 722.0864s-11.2-268.8 248.8064-412.8c0 0 311.2064-167.2064 559.2064 106.4064 0 0 116.0064 105.0624 116.0064 306.4064 0 0-20.4032 45.0048-47.0016 0 0 0 15.0016-249.6-232.2048-378.4064 0 0-249.6-127.2064-466.4064 74.4064 0 0-126.4 85.6064-130.8032 304.8064 0-0.0128-20.4032 44.7872-47.6032-0.8192z" fill="#2c2c2c" p-id="1683"></path><path d="M507.5712 703.9104l-4.992 5.44a24.8192 24.8192 0 0 1-34.9696 1.5104L281.216 539.9424a24.8192 24.8192 0 0 1-1.5104-34.9696l4.992-5.44a24.8192 24.8192 0 0 1 34.9696-1.5104l186.3936 170.9184a24.832 24.832 0 0 1 1.5104 34.9696z" fill="#2c2c2c" p-id="1684"></path><path d="M515.2 715.9168m-78.4 0a78.4 78.4 0 1 0 156.8 0 78.4 78.4 0 1 0-156.8 0Z" fill="#2c2c2c" p-id="1685"></path></svg>